<?xml version="1.0" encoding="UTF-8" standalone="no"?><!DOCTYPE svg PUBLIC "-//W3C//DTD SVG 1.1//EN" "http://www.w3.org/Graphics/SVG/1.1/DTD/svg11.dtd"><svg width="100%" height="100%" viewBox="0 0 1024 1024" version="1.1" xmlns="http://www.w3.org/2000/svg" xmlns:xlink="http://www.w3.org/1999/xlink" xml:space="preserve" xmlns:serif="http://www.serif.com/" style="fill-rule:evenodd;clip-rule:evenodd;stroke-linecap:round;stroke-linejoin:round;stroke-miterlimit:1.5;"><rect id="icon" x="0" y="0" width="1024" height="1024" style="fill:none;"/><g id="icon1" serif:id="icon"><path d="M972,282l0,460c0,126.94 -103.06,230 -230,230l-460,0c-126.94,0 -230,-103.06 -230,-230l-0,-460c-0,-126.94 103.06,-230 230,-230l460,0c126.94,0 230,103.06 230,230Z" style="fill:#293241;stroke:#ee6c4d;stroke-width:26.67px;"/><g id="logo"><path d="M631.269,474.146c-22.232,7.059 -212.313,37.036 -226.929,2.792c-2.948,-6.907 -6.851,-8.074 -14.099,-7.739c-27.289,1.263 -48.345,11.013 -59.831,39.937c-5.131,12.921 -16.509,17.715 -29.839,17.06c-12.697,-0.624 -17.814,-9.804 -21.701,-20.589c-7.614,-21.123 -22.1,-32.569 -42.632,-36.258c-6.905,-1.24 -34.808,6 -43.895,7.085c-2.827,-2.631 -2.397,-5.577 -2.317,-8.477c1.631,-59.306 51.622,-121.807 108.152,-122.646c18.817,-0.28 21.574,-4.143 26.945,-23.047c26.397,-92.898 114.896,-144.65 198.273,-137.444c89.933,7.772 150.576,59.417 176.501,154.096c2.817,10.287 14.825,0.261 24.596,-0.591c17.259,-1.506 26.366,17.36 42.034,24.624c42.339,19.631 71.612,68.559 67.049,112.084c-1.568,-0.113 -3.224,0.062 -4.719,-0.384c-45.904,-13.668 -61.068,-6.867 -84.098,38.422c-4.42,8.693 -10.71,12.535 -19.715,12.939c-14.595,0.655 -23.854,-7.593 -29.452,-20.74c-7.527,-17.682 -42.091,-38.183 -64.323,-31.124Z" style="fill:#ee6c4d;"/><path d="M194.123,618.655c-23.058,-21.827 -36.764,-52.654 -35.772,-86.322c0.047,-1.59 -0.352,-3.362 0.21,-4.743c12.56,-30.882 9.437,-64.421 16.231,-96.121c3.664,-17.094 10.293,-32.698 19.331,-46.387c21.998,-33.314 58.271,-55.29 100.827,-59.824c9.428,-1.004 12.546,-6.124 15.303,-13.362c21.86,-57.386 58.576,-97.689 109.121,-120.222c17.239,-7.686 36.087,-13.304 56.502,-16.828c45.456,-7.847 90.331,-1.39 129.188,16.828c47.574,22.305 86.128,62.241 105.684,115.144c4.63,12.526 10.133,17.437 24.119,19.159c38.289,4.713 71.716,27.279 92.871,58.74c13.336,19.835 21.795,43.205 23.52,67.866c1.383,19.773 3.2,39.069 9.801,58.578c12.848,37.965 -1.541,79.702 -33.321,108.081c-3.384,3.021 -6.964,5.89 -10.73,8.588c-3.441,2.465 -7.135,4.578 -11.76,7.409c-22.18,11.495 -44.697,16.47 -68.435,16.442c-57.274,-0.067 -189.706,0.368 -189.706,0.368c0,0 -0.09,-76.707 -0.775,-105.859c-0.254,-10.773 3.68,-15.92 13.465,-20.019c38.898,-16.293 45.531,-60.108 67.143,-66.496c21.612,-6.388 55.212,12.165 62.529,28.166c5.442,11.898 14.442,19.362 28.631,18.77c8.753,-0.366 14.867,-3.843 19.164,-11.71c22.388,-40.986 37.129,-47.14 81.753,-34.771c1.453,0.403 3.062,0.245 4.587,0.347c4.435,-39.39 -24.021,-83.669 -65.179,-101.435c-15.23,-6.574 -31.073,-10.845 -47.851,-9.483c-9.498,0.771 -14.182,-2.957 -16.92,-12.267c-25.202,-85.684 -84.153,-132.421 -171.578,-139.456c-81.05,-6.521 -163.045,45.146 -188.706,129.218c-5.222,17.108 -11.754,22.816 -30.046,23.069c-54.954,0.759 -103.732,50.279 -105.317,103.95c-0.078,2.625 -0.496,5.291 2.252,7.672c8.833,-0.982 35.958,-7.534 42.67,-6.411c19.96,3.337 34.041,13.696 41.443,32.812c3.779,9.761 8.753,18.068 21.096,18.633c12.958,0.593 24.018,-3.745 29.006,-15.439c11.166,-26.176 31.634,-34.999 58.162,-36.143c7.046,-0.303 10.841,0.754 13.706,7.004c14.208,30.991 34.502,55.82 68.335,66.831c6.072,1.976 7.183,7.101 7.173,12.786c-0.058,32.35 -1.388,110.231 -1.388,110.231c-0,0 -141.71,0.865 -206.363,-0.848c-31.551,-0.836 -59.464,-13.13 -79.976,-32.546Z" style="fill:#3d5a80;"/><path d="M487.541,697.191l-0,117.321l-67.576,0l0.077,-33.291l44.478,0l-0.484,-46.928l-44.164,-0l0.133,-37.102l67.536,-0Z" style="fill:#ee6c4d;fill-rule:nonzero;"/><path d="M477.197,544.407c-52.912,-10.893 -80.654,-56.625 -80.654,-110.245c0,-61.758 52.66,-111.898 117.522,-111.898c64.862,0 117.522,50.14 117.522,111.898c-0,53.62 -25.678,99.352 -78.59,110.245l2.806,107.61l-81.524,0l2.918,-107.61Z" style="fill:#3d5a80;"/><path d="M494.095,532.413c-42.408,-9.17 -74.223,-46.933 -74.223,-92.068c0,-51.986 42.207,-94.192 94.193,-94.192c51.986,-0 94.192,42.206 94.192,94.192c0,45.135 -31.815,82.898 -74.223,92.068l0,298.227c0,-0 -13.313,21.797 -19.969,21.797c-6.657,0 -19.97,-21.797 -19.97,-21.797l0,-298.227Z" style="fill:#ee6c4d;"/><clipPath id="_clip1"><path d="M494.095,532.413c-42.408,-9.17 -74.223,-46.933 -74.223,-92.068c0,-51.986 42.207,-94.192 94.193,-94.192c51.986,-0 94.192,42.206 94.192,94.192c0,45.135 -31.815,82.898 -74.223,92.068l0,298.227c0,-0 -13.313,21.797 -19.969,21.797c-6.657,0 -19.97,-21.797 -19.97,-21.797l0,-298.227Z"/></clipPath><g clip-path="url(#_clip1)"><path d="M466.344,481.292c-1.46,-2.044 -2.117,-4.672 -1.971,-7.884c0.146,-3.212 2.044,-5.986 5.694,-8.322c2.336,-1.46 4.818,-2.081 7.446,-1.862c2.628,0.219 5.183,1.57 7.665,4.052c4.234,4.234 8.687,7.519 13.359,9.855c4.672,2.336 10.512,3.504 17.52,3.504c2.19,-0.146 4.599,-0.475 7.227,-0.986c2.628,-0.511 4.927,-1.679 6.898,-3.504c1.971,-1.825 2.957,-4.635 2.957,-8.431c-0,-3.212 -1.095,-5.767 -3.285,-7.665c-2.19,-1.898 -5.074,-3.504 -8.651,-4.818c-3.577,-1.314 -7.555,-2.555 -11.935,-3.723c-4.526,-1.314 -9.162,-2.774 -13.907,-4.38c-4.745,-1.606 -9.088,-3.687 -13.03,-6.242c-3.942,-2.555 -7.154,-5.949 -9.636,-10.183c-2.482,-4.234 -3.723,-9.563 -3.723,-15.987c-0,-7.3 2.044,-13.505 6.132,-18.615c4.088,-5.11 9.38,-9.052 15.877,-11.826c6.497,-2.774 13.323,-4.161 20.477,-4.161c4.526,-0 9.271,0.547 14.235,1.642c4.964,1.095 9.709,2.847 14.235,5.256c4.526,2.409 8.322,5.585 11.388,9.527c1.606,2.19 2.555,4.818 2.847,7.884c0.292,3.066 -1.095,5.84 -4.161,8.322c-2.19,1.752 -4.745,2.518 -7.665,2.299c-2.92,-0.219 -5.329,-1.204 -7.227,-2.956c-2.482,-3.212 -5.804,-5.767 -9.965,-7.665c-4.161,-1.898 -8.942,-2.847 -14.344,-2.847c-2.19,-0 -4.563,0.255 -7.118,0.766c-2.555,0.511 -4.781,1.606 -6.679,3.285c-1.898,1.679 -2.847,4.344 -2.847,7.994c-0,3.358 1.095,6.022 3.285,7.993c2.19,1.971 5.146,3.577 8.869,4.818c3.723,1.241 7.702,2.446 11.936,3.614c4.38,1.168 8.833,2.555 13.359,4.161c4.526,1.606 8.687,3.723 12.483,6.351c3.796,2.628 6.862,6.022 9.198,10.183c2.336,4.161 3.504,9.454 3.504,15.878c-0,7.446 -2.19,13.797 -6.57,19.053c-4.38,5.256 -9.855,9.234 -16.425,11.935c-6.57,2.701 -13.286,4.052 -20.148,4.052c-8.614,-0 -17.228,-1.497 -25.842,-4.49c-8.614,-2.993 -15.768,-8.285 -21.462,-15.877Z" style="fill:#fff;fill-rule:nonzero;"/></g></g></g></svg>